<!--Copied from figma-->
<svg width="17" height="13" viewBox="0 0 17 13" fill="none" xmlns="http://www.w3.org/2000/svg">
    <path d="M5.86611 12.0244L5.86714 12.0255C6.04369 12.202 6.25849 12.3032 6.5042 12.3032C6.74667 12.3032 6.95251 12.2036 7.10116 12.0145L16.346 2.87184L16.347 2.87086C16.5045 2.71339 16.5736 2.50898 16.5736 2.28494C16.5736 2.06037 16.505 1.85431 16.3702 1.67465L16.3551 1.65452L16.3363 1.6378L15.8932 1.24396C15.7449 1.0586 15.5408 0.960938 15.3008 0.960938C15.0762 0.960938 14.8702 1.02962 14.6905 1.16437L14.6763 1.17503L14.6637 1.18759L6.50548 9.34584L3.15338 5.94516L3.14027 5.93187L3.12533 5.92066C2.94568 5.78592 2.73962 5.71724 2.51505 5.71724C2.29371 5.71724 2.09154 5.78476 1.93485 5.93822L1.47953 6.34296L1.46072 6.35967L1.44562 6.37981C1.31088 6.55946 1.24219 6.76553 1.24219 6.99009C1.24219 7.21385 1.3112 7.41803 1.46825 7.57542C1.46845 7.57562 1.46864 7.57582 1.46884 7.57601L5.86611 12.0244Z" fill="#00703C" stroke="#00703C" stroke-width="0.5"/>
</svg>
